# xmcd
#
# Track frame offsets:
#	150
#	16902
#	32802
#	49305
#	65387
#	83912
#	104375
#	118590
#	140640
#	164342
#	180775
#	196637
#	212045
#	229142
#	247797
#
# Disc length: 3518 seconds
#
# Revision: 1
# Processed by: cddbd v1.5.2PL0 Copyright (c) Steve Scherf et al.
# Submitted via: audiograbber 1.83.01
#
DISCID=c00dbc0f
DTITLE=Various Artist - SC 1999 NATIONAL SINGING CHAMPIONSHIP Country Hits vol. 5
DYEAR=1900
DGENRE=country
TTITLE0=george strait 1 I just want to dance with you
TTITLE1=shania twain 2 you're still the one
TTITLE2=faith hill 3 this kiss
TTITLE3=jo dee messina 4 bye bye
TTITLE4=the wilkinsons 5 $0.26
TTITLE5=leann rimes 6 commitment
TTITLE6=alabama 7 how do you fall in love
TTITLE7=vince gill 8 if you ever have forever in mind
TTITLE8=steve wariner 9 holes in the floor of heaven
TTITLE9=dixie chicks 10 there's your trouble
TTITLE10=mark wills 11 I do (cherish you)
TTITLE11=jim brickman and martina mcbride 12 Valentine
TTITLE12=terri clark 13 now that I found you
TTITLE13=garth brooks 14 to make you feel my love
TTITLE14=trace adkins 15 lonely won't leave me alone
EXTD=
EXTT0=
EXTT1=
EXTT2=
EXTT3=
EXTT4=
EXTT5=
EXTT6=
EXTT7=
EXTT8=
EXTT9=
EXTT10=
EXTT11=
EXTT12=
EXTT13=
EXTT14=
PLAYORDER=
